<?xml version="1.0" encoding="utf-8"?>
<!-- Generator: Adobe Illustrator 22.0.1, SVG Export Plug-In . SVG Version: 6.00 Build 0)  -->
<svg version="1.1" id="Layer_1" xmlns="http://www.w3.org/2000/svg" xmlns:xlink="http://www.w3.org/1999/xlink" x="0px" y="0px"
	 viewBox="0 0 91.8 71.4" style="enable-background:new 0 0 91.8 71.4;" xml:space="preserve">
<style type="text/css">
	.st0{fill:url(#SVGID_1_);}
	.st1{fill:#FFFFFF;}
	.st2{fill:url(#SVGID_2_);}
	.st3{fill:#25AE99;}
	.st4{fill:url(#SVGID_3_);stroke:#FFFFFF;stroke-width:2;}
	.st5{fill:#0E395A;}
	.st6{fill:url(#SVGID_4_);}
</style>
<g>
	<g>
		<linearGradient id="SVGID_1_" gradientUnits="userSpaceOnUse" x1="3.2937" y1="36.2229" x2="48.5146" y2="36.2229">
			<stop  offset="0.2542" style="stop-color:#6ECACC"/>
			<stop  offset="0.3142" style="stop-color:#5DC6C3"/>
			<stop  offset="0.4228" style="stop-color:#46C1B7"/>
			<stop  offset="0.5389" style="stop-color:#35BDAF"/>
			<stop  offset="0.6668" style="stop-color:#2BBBA9"/>
			<stop  offset="0.8292" style="stop-color:#28BAA8"/>
		</linearGradient>
		<path class="st0" d="M44.4,31.2c-0.3-0.3-0.6-0.6-1-0.9c-0.3-0.3-0.7-0.6-1.1-0.8c-0.6-0.4-1.2-0.8-2-1.2c-0.8-0.4-1.5-0.7-2.1-1
			c-0.1-0.1-0.3-0.1-0.4-0.2v-6.6H22.3l0-4c0-0.1-0.1-0.3-0.2-0.4c-0.2-0.2-1-0.5-1.7-0.7c-0.7-0.1-1.3-0.2-1.3-0.2l-1.5-0.2v-0.4
			l-1.9-1.1l-1.7,1.1v0.5h-2.1v-2h0.1l0-0.2H8.5v4.4H3.3c0,0.2,0,0.3,0,0.5c0,2.2,0.4,4.2,1.1,5.9c0.6,1.4,1.4,2.6,2.3,3.5
			c0.2,0.3,0.5,0.5,0.8,0.8c1.2,1.2,2.6,2.2,4.2,3c0.6,0.3,1.1,0.6,1.7,0.9c0.1,0,0.1,0.1,0.2,0.1c0.6,0.3,1.2,0.5,1.8,0.7
			c0,0,0,0,0,0L4.1,49.1c-0.4,0.6-0.5,1.2-0.4,1.8c0.1,0.6,0.4,1.1,1,1.5c0.6,0.4,1.1,0.8,1.6,1.1c0.5,0.3,1,0.7,1.5,1
			c0.8,0.5,1.7,1,2.6,1.4c0.9,0.4,1.8,0.8,2.7,1.2c2,0.8,4,1.4,6.1,1.8c2.2,0.5,4.8,0.7,7.8,0.7c3.1,0,6-0.4,8.7-1.1
			c2.6-0.7,4.8-1.8,6.8-3.2c1.9-1.4,3.4-3.2,4.4-5.3c1-2.2,1.5-4.8,1.5-7.7c0-2.5-0.4-4.7-1.2-6.5C46.7,34,45.7,32.5,44.4,31.2z"/>
	</g>
	<g>
		<path class="st1" d="M28.4,20.5h-6.1l0-4c0-0.1-0.1-0.3-0.2-0.4c-0.2-0.2-1-0.5-1.7-0.7c-0.7-0.1-1.3-0.2-1.3-0.2l-1.5-0.2v-0.4
			l-1.9-1.1l-1.7,1.1v0.5h-2.1v-2h0.1l0-0.2H8.5v4.4H0v-1h7.3v-0.9h0.1v-1.9H7.3v-1.2h0.1v-0.4h5.4v0.4l0.1,0.5v1.3l2.7-1.6l2.9,1.6
			v0.1l0.6,0.1c0,0,0.6,0.1,1.4,0.2c0.8,0.2,1.7,0.6,2.1,0.8c0.5,0.3,0.6,0.9,0.6,1l0,3.2h5.1V20.5z M12.9,14.2L12.9,14.2L12.9,14.2
			z"/>
	</g>
	<g>
		<linearGradient id="SVGID_2_" gradientUnits="userSpaceOnUse" x1="3.2938" y1="10.249" x2="44.9327" y2="10.249">
			<stop  offset="0.2542" style="stop-color:#6ECACC"/>
			<stop  offset="0.3142" style="stop-color:#5DC6C3"/>
			<stop  offset="0.4228" style="stop-color:#46C1B7"/>
			<stop  offset="0.5389" style="stop-color:#35BDAF"/>
			<stop  offset="0.6668" style="stop-color:#2BBBA9"/>
			<stop  offset="0.8292" style="stop-color:#28BAA8"/>
		</linearGradient>
		<path class="st2" d="M7.3,16.3v-0.9h0.1v-1.9H7.3v-1.2h0.1v-0.4h5.4v0.4l0.1,0.5v1.3l2.7-1.6l2.9,1.6v0.1l0.6,0.1
			c0,0,0.6,0.1,1.4,0.2c0.8,0.2,1.7,0.6,2.1,0.8c0.5,0.3,0.6,0.9,0.6,1l0,3.2h14.7l6.5-9.1l-0.1,0l0.1-0.1C44.8,9.6,45,9,44.9,8.4
			c-0.1-0.6-0.4-1.1-1-1.5c-0.6-0.3-1.1-0.6-1.5-0.9c-0.5-0.3-1-0.6-1.5-0.9c-0.7-0.4-1.5-0.8-2.2-1.2c-0.8-0.4-1.6-0.7-2.4-1
			c-0.8-0.3-1.7-0.5-2.5-0.7c-0.9-0.2-1.7-0.4-2.7-0.6c-1.9-0.3-4-0.5-6.3-0.5c-2.5,0-5,0.3-7.4,0.8c-2.6,0.6-4.9,1.4-7,2.6
			C8.2,5.7,6.5,7.5,5.2,9.6c-1.1,1.9-1.8,4.2-2,6.8H7.3z"/>
	</g>
	<g>
		<path class="st3" d="M47.4,35.7c-0.7-1.7-1.7-3.2-2.9-4.5c-0.3-0.3-0.6-0.6-1-0.9c-0.3-0.3-0.7-0.6-1.1-0.8
			c-0.6-0.4-1.2-0.8-2-1.2c-0.8-0.4-1.5-0.7-2.1-1c-0.4-0.2-0.8-0.3-1.3-0.5c-0.4-0.2-0.9-0.3-1.3-0.4c-0.7-0.2-1.5-0.4-2.2-0.6
			l3.8-5.3H22.3l0-4c0-0.1-0.1-0.3-0.2-0.4c-0.2-0.2-1-0.5-1.7-0.7c-0.7-0.1-1.3-0.2-1.3-0.2l-1.5-0.2v-0.4l-1.9-1.1l-1.7,1.1v0.5
			h-2.1v-2h0.1l0-0.2H8.5v4.4H3.3c0,0.2,0,0.3,0,0.5c0,2.2,0.4,4.2,1.1,5.9c0.8,1.8,1.8,3.2,3,4.3c1.2,1.2,2.6,2.2,4.2,3
			c1.5,0.8,3.1,1.5,4.7,1.9c1.6,0.6,3.1,1,4.6,1.2c0.7,0.2,1.4,0.3,2.1,0.4c0.7,0.1,1.3,0.2,1.9,0.3c0.9,0.2,1.7,0.3,2.5,0.5
			c0.8,0.2,1.6,0.3,2.4,0.5c0.8,0.2,1.6,0.4,2.2,0.6c0.7,0.2,1.3,0.4,1.9,0.7c1.2,0.6,2.1,1.2,2.8,1.9c0.7,0.9,1.1,1.9,1.1,2.9
			c0,0.9-0.2,1.8-0.7,2.6c-0.5,0.9-1.2,1.7-2.1,2.4c-1,0.8-2.2,1.3-3.4,1.7c-1.3,0.5-2.9,0.7-4.6,0.7c-3.4,0-6.6-0.7-9.5-2.2
			c-2.2-1-4.5-2.3-6.8-3.7c-0.6-0.4-1.2-0.5-1.8-0.4c-0.6,0.1-1.1,0.4-1.5,1l-3.2,4.8c-0.4,0.6-0.5,1.2-0.4,1.8
			c0.1,0.6,0.4,1.1,1,1.5c0.6,0.4,1.1,0.8,1.6,1.1c0.5,0.3,1,0.7,1.5,1c0.8,0.5,1.7,1,2.6,1.4c0.9,0.4,1.8,0.8,2.7,1.2
			c2,0.8,4,1.4,6.1,1.8c2.2,0.5,4.8,0.7,7.8,0.7c3.1,0,6-0.4,8.7-1.1c2.6-0.7,4.8-1.8,6.8-3.2c1.9-1.4,3.4-3.2,4.4-5.3
			c1-2.2,1.5-4.8,1.5-7.7C48.5,39.7,48.1,37.5,47.4,35.7z"/>
	</g>
	<linearGradient id="SVGID_3_" gradientUnits="userSpaceOnUse" x1="26.9703" y1="30.2587" x2="70.0588" y2="30.2587">
		<stop  offset="0.2542" style="stop-color:#6ECACC"/>
		<stop  offset="0.3142" style="stop-color:#5DC6C3"/>
		<stop  offset="0.4228" style="stop-color:#46C1B7"/>
		<stop  offset="0.5389" style="stop-color:#35BDAF"/>
		<stop  offset="0.6668" style="stop-color:#2BBBA9"/>
		<stop  offset="0.8292" style="stop-color:#28BAA8"/>
	</linearGradient>
	<path class="st4" d="M38.2,13.4v9.7c0,0.7,0.2,1.3,0.7,1.8c0.5,0.5,1.1,0.7,1.8,0.7H64c0.7,0,1.3,0.2,1.8,0.7
		c0.5,0.5,0.7,1.1,0.7,1.8v5.2c0,0.7-0.2,1.3-0.7,1.8c-0.5,0.5-1.1,0.7-1.8,0.7H40.6c-0.7,0-1.3,0.2-1.8,0.7
		c-0.5,0.5-0.7,1.1-0.7,1.8V47c0,0.7,0.2,1.3,0.7,1.8c0.5,0.5,1.1,0.7,1.8,0.7h26.9c0.7,0,1.3,0.2,1.8,0.7c0.5,0.5,0.7,1.1,0.7,1.8
		V57c0,0.7-0.2,1.3-0.7,1.8s-1.1,0.7-1.8,0.7H29.4c-0.7,0-1.3-0.2-1.8-0.7S27,57.7,27,57V3.5c0-0.7,0.2-1.3,0.7-1.8S28.8,1,29.4,1
		h38.1c0.7,0,1.3,0.2,1.8,0.7s0.7,1.1,0.7,1.8v5c0,0.7-0.2,1.3-0.7,1.8c-0.5,0.5-1.1,0.7-1.8,0.7H40.6c-0.7,0-1.3,0.2-1.8,0.7
		C38.4,12.1,38.2,12.7,38.2,13.4z"/>
	<g>
		<path class="st5" d="M3.4,69.9l0.5-0.7C3.9,69.1,4,69.1,4.1,69c0.1,0,0.2,0,0.3,0.1c0.3,0.2,0.7,0.4,1,0.5C5.8,69.9,6.2,70,6.7,70
			c0.3,0,0.5,0,0.7-0.1c0.2-0.1,0.3-0.1,0.5-0.2c0.1-0.1,0.2-0.2,0.3-0.3c0.1-0.1,0.1-0.2,0.1-0.4c0-0.2-0.1-0.3-0.2-0.4
			c-0.1-0.1-0.2-0.2-0.4-0.3c-0.1,0-0.2-0.1-0.3-0.1C7.4,68,7.3,68,7.1,68c-0.1,0-0.2-0.1-0.3-0.1c-0.1,0-0.2,0-0.4-0.1
			c-0.1,0-0.2,0-0.3-0.1c-0.1,0-0.2,0-0.3-0.1c-0.2,0-0.4-0.1-0.7-0.2c-0.2-0.1-0.5-0.2-0.7-0.3c-0.2-0.1-0.4-0.3-0.6-0.4
			c-0.2-0.2-0.3-0.4-0.4-0.6c-0.1-0.2-0.2-0.5-0.2-0.9c0-0.5,0.1-0.9,0.3-1.2c0.2-0.3,0.4-0.6,0.7-0.8c0.3-0.2,0.6-0.3,1-0.4
			c0.4-0.1,0.7-0.1,1.1-0.1c0.3,0,0.7,0,0.9,0.1c0.1,0,0.3,0.1,0.4,0.1c0.1,0,0.2,0.1,0.4,0.1c0.1,0,0.2,0.1,0.3,0.2
			s0.2,0.1,0.3,0.2c0.1,0,0.1,0.1,0.2,0.1c0.1,0,0.1,0.1,0.2,0.1c0.1,0.1,0.1,0.1,0.1,0.2c0,0.1,0,0.2-0.1,0.3l-0.5,0.7
			C8.8,65,8.7,65,8.6,65.1c-0.1,0-0.2,0-0.3-0.1c-0.3-0.2-0.6-0.3-0.8-0.4c-0.4-0.1-0.7-0.2-1.1-0.2c-0.1,0-0.1,0-0.2,0
			c-0.1,0-0.2,0-0.2,0c-0.2,0-0.3,0.1-0.5,0.2c-0.1,0-0.1,0.1-0.2,0.1c-0.1,0-0.1,0.1-0.2,0.2c-0.1,0.1-0.1,0.3-0.1,0.4
			c0,0.2,0.1,0.3,0.2,0.4c0.1,0.1,0.3,0.2,0.5,0.3c0.1,0,0.2,0.1,0.3,0.1c0.1,0,0.2,0.1,0.3,0.1c0.1,0,0.2,0.1,0.3,0.1
			c0.1,0,0.2,0,0.3,0.1c0.1,0,0.2,0,0.3,0.1c0.1,0,0.2,0,0.3,0.1c0.1,0,0.2,0,0.3,0.1c0.1,0,0.2,0.1,0.3,0.1c0.1,0,0.1,0,0.2,0.1
			c0.1,0,0.1,0,0.2,0.1c0.1,0,0.2,0.1,0.3,0.1C8.8,66.9,8.9,67,9,67c0.1,0,0.1,0.1,0.2,0.1c0,0,0.1,0.1,0.1,0.1
			c0.2,0.2,0.3,0.4,0.4,0.7c0.1,0.3,0.2,0.6,0.2,0.9c0,0.4-0.1,0.8-0.2,1.1c-0.1,0.3-0.4,0.6-0.6,0.8c-0.3,0.2-0.6,0.4-1,0.5
			c-0.4,0.1-0.8,0.2-1.3,0.2c-0.4,0-0.8,0-1.1-0.1C5.3,71.3,5,71.2,4.7,71c-0.1-0.1-0.3-0.1-0.4-0.2c-0.1-0.1-0.3-0.1-0.4-0.2
			c-0.1,0-0.1-0.1-0.2-0.1c-0.1,0-0.2-0.1-0.2-0.2c-0.1-0.1-0.1-0.1-0.1-0.2C3.3,70.1,3.4,70,3.4,69.9z"/>
		<path class="st5" d="M12.8,64.8v1.4c0,0.1,0,0.2,0.1,0.2c0.1,0.1,0.1,0.1,0.2,0.1h3.3c0.1,0,0.2,0,0.2,0.1
			c0.1,0.1,0.1,0.1,0.1,0.2v0.7c0,0.1,0,0.2-0.1,0.2c-0.1,0.1-0.1,0.1-0.2,0.1h-3.3c-0.1,0-0.2,0-0.2,0.1c-0.1,0.1-0.1,0.1-0.1,0.2
			v1.2c0,0.1,0,0.2,0.1,0.2c0.1,0.1,0.1,0.1,0.2,0.1h3.8c0.1,0,0.2,0,0.2,0.1c0.1,0.1,0.1,0.1,0.1,0.2v0.7c0,0.1,0,0.2-0.1,0.2
			c-0.1,0.1-0.1,0.1-0.2,0.1h-5.4c-0.1,0-0.2,0-0.2-0.1c-0.1-0.1-0.1-0.1-0.1-0.2v-7.5c0-0.1,0-0.2,0.1-0.2c0.1-0.1,0.1-0.1,0.2-0.1
			h5.4c0.1,0,0.2,0,0.2,0.1c0.1,0.1,0.1,0.1,0.1,0.2v0.7c0,0.1,0,0.2-0.1,0.2c-0.1,0.1-0.1,0.1-0.2,0.1h-3.8c-0.1,0-0.2,0-0.2,0.1
			S12.8,64.7,12.8,64.8z"/>
		<path class="st5" d="M23.9,63.4v4.8c0,0.5-0.1,0.9-0.2,1.3c-0.1,0.4-0.3,0.7-0.6,1c-0.3,0.3-0.6,0.5-1,0.7
			c-0.4,0.2-0.8,0.2-1.2,0.2c-0.7,0-1.2-0.1-1.7-0.4c-0.4-0.2-0.7-0.5-0.9-0.9c0-0.1-0.1-0.2,0-0.3c0-0.1,0.1-0.2,0.2-0.2l0.8-0.4
			c0.1,0,0.2-0.1,0.2,0c0.1,0,0.1,0,0.1,0.1c0,0,0,0,0.1,0.1c0,0,0,0.1,0.1,0.1c0.1,0.1,0.2,0.2,0.3,0.3c0.1,0.1,0.2,0.2,0.4,0.2
			c0.1,0.1,0.3,0.1,0.5,0.1c0.3,0,0.6-0.1,0.8-0.2c0.2-0.1,0.3-0.3,0.4-0.5c0.1-0.1,0.1-0.2,0.1-0.3c0-0.1,0.1-0.2,0.1-0.3
			c0-0.1,0-0.2,0-0.3c0-0.1,0-0.2,0-0.3v-4.8c0-0.1,0-0.2,0.1-0.2c0.1-0.1,0.1-0.1,0.2-0.1h0.9c0.1,0,0.2,0,0.2,0.1
			C23.9,63.2,23.9,63.3,23.9,63.4z"/>
		<path class="st5" d="M34,63.2v7.7c0,0.1,0,0.2-0.1,0.2c-0.1,0.1-0.1,0.1-0.2,0.1h-0.9c-0.1,0-0.2,0-0.2-0.1
			c-0.1-0.1-0.1-0.1-0.1-0.2v-3.5c0-0.1,0-0.2-0.1-0.2c0,0-0.1,0-0.2,0.1l-2.1,2.6C30,70,29.9,70,29.8,70s-0.2,0-0.2-0.1l-2.1-2.6
			c-0.1-0.1-0.1-0.1-0.2-0.1s-0.1,0.1-0.1,0.2v3.5c0,0.1,0,0.2-0.1,0.2c-0.1,0.1-0.1,0.1-0.2,0.1H26c-0.1,0-0.2,0-0.2-0.1
			c-0.1-0.1-0.1-0.1-0.1-0.2v-7.7c0-0.1,0-0.2,0.1-0.2c0.1,0,0.2,0,0.2,0.1l3.6,4.4c0.1,0.1,0.1,0.1,0.2,0.1c0.1,0,0.2,0,0.2-0.1
			l3.6-4.4c0.1-0.1,0.1-0.1,0.2-0.1C33.9,63.1,34,63.1,34,63.2z"/>
		<path class="st5" d="M39.6,71.4c-0.6,0-1.1-0.1-1.7-0.3c-0.5-0.2-1-0.5-1.4-0.9c-0.4-0.4-0.7-0.8-0.9-1.4
			c-0.2-0.5-0.3-1.1-0.3-1.7c0-0.6,0.1-1.1,0.3-1.7c0.2-0.5,0.5-1,0.9-1.4c0.4-0.4,0.8-0.7,1.4-0.9c0.5-0.2,1.1-0.3,1.7-0.3
			c0.6,0,1.1,0.1,1.7,0.3c0.5,0.2,1,0.5,1.4,0.9c0.4,0.4,0.7,0.8,0.9,1.4c0.2,0.5,0.3,1.1,0.3,1.7c0,0.6-0.1,1.1-0.3,1.7
			c-0.2,0.5-0.5,1-0.9,1.4c-0.4,0.4-0.8,0.7-1.4,0.9C40.8,71.3,40.2,71.4,39.6,71.4z M39.6,64.3c-0.4,0-0.7,0.1-1,0.2
			c-0.3,0.2-0.6,0.4-0.9,0.6c-0.2,0.3-0.4,0.6-0.6,0.9c-0.1,0.3-0.2,0.7-0.2,1.1c0,0.4,0.1,0.7,0.2,1.1c0.1,0.3,0.3,0.6,0.6,0.9
			c0.2,0.3,0.5,0.5,0.9,0.6c0.3,0.2,0.7,0.2,1,0.2c0.4,0,0.7-0.1,1-0.2c0.3-0.2,0.6-0.4,0.9-0.6c0.2-0.3,0.4-0.6,0.6-0.9
			c0.1-0.3,0.2-0.7,0.2-1.1c0-0.4-0.1-0.7-0.2-1.1c-0.1-0.3-0.3-0.6-0.6-0.9c-0.2-0.3-0.5-0.5-0.9-0.6C40.4,64.4,40,64.3,39.6,64.3z
			"/>
		<path class="st5" d="M53.6,63.2v7.7c0,0.1,0,0.2-0.1,0.2c-0.1,0.1-0.1,0.1-0.2,0.1h-0.9c-0.1,0-0.2,0-0.2-0.1
			C52,71.1,52,71,52,70.9v-3.5c0-0.1,0-0.2-0.1-0.2c0,0-0.1,0-0.2,0.1l-2.1,2.6C49.6,70,49.5,70,49.4,70s-0.2,0-0.2-0.1l-2.1-2.6
			c-0.1-0.1-0.1-0.1-0.2-0.1c0,0-0.1,0.1-0.1,0.2v3.5c0,0.1,0,0.2-0.1,0.2c-0.1,0.1-0.1,0.1-0.2,0.1h-0.9c-0.1,0-0.2,0-0.2-0.1
			c-0.1-0.1-0.1-0.1-0.1-0.2v-7.7c0-0.1,0-0.2,0.1-0.2c0.1,0,0.2,0,0.2,0.1l3.6,4.4c0.1,0.1,0.1,0.1,0.2,0.1c0.1,0,0.2,0,0.2-0.1
			l3.6-4.4c0.1-0.1,0.1-0.1,0.2-0.1C53.5,63.1,53.6,63.1,53.6,63.2z"/>
		<path class="st5" d="M57,64.8v1.4c0,0.1,0,0.2,0.1,0.2c0.1,0.1,0.1,0.1,0.2,0.1h3.3c0.1,0,0.2,0,0.2,0.1c0.1,0.1,0.1,0.1,0.1,0.2
			v0.7c0,0.1,0,0.2-0.1,0.2c-0.1,0.1-0.1,0.1-0.2,0.1h-3.3c-0.1,0-0.2,0-0.2,0.1C57,68.1,57,68.2,57,68.2v1.2c0,0.1,0,0.2,0.1,0.2
			c0.1,0.1,0.1,0.1,0.2,0.1h3.8c0.1,0,0.2,0,0.2,0.1c0.1,0.1,0.1,0.1,0.1,0.2v0.7c0,0.1,0,0.2-0.1,0.2c-0.1,0.1-0.1,0.1-0.2,0.1
			h-5.4c-0.1,0-0.2,0-0.2-0.1c-0.1-0.1-0.1-0.1-0.1-0.2v-7.5c0-0.1,0-0.2,0.1-0.2c0.1-0.1,0.1-0.1,0.2-0.1h5.4c0.1,0,0.2,0,0.2,0.1
			c0.1,0.1,0.1,0.1,0.1,0.2v0.7c0,0.1,0,0.2-0.1,0.2c-0.1,0.1-0.1,0.1-0.2,0.1h-3.8c-0.1,0-0.2,0-0.2,0.1C57,64.6,57,64.7,57,64.8z"
			/>
		<path class="st5" d="M68.2,64.4h-1.7c-0.1,0-0.2,0-0.2,0.1s-0.1,0.1-0.1,0.2v6.1c0,0.1,0,0.2-0.1,0.2c-0.1,0.1-0.1,0.1-0.2,0.1
			h-0.9c-0.1,0-0.2,0-0.2-0.1c-0.1-0.1-0.1-0.1-0.1-0.2v-6.1c0-0.1,0-0.2-0.1-0.2c-0.1-0.1-0.1-0.1-0.2-0.1h-1.7
			c-0.1,0-0.2,0-0.2-0.1c-0.1-0.1-0.1-0.1-0.1-0.2v-0.7c0-0.1,0-0.2,0.1-0.2c0.1-0.1,0.1-0.1,0.2-0.1h5.6c0.1,0,0.2,0,0.2,0.1
			c0.1,0.1,0.1,0.1,0.1,0.2v0.7c0,0.1,0,0.2-0.1,0.2C68.3,64.4,68.3,64.4,68.2,64.4z"/>
		<path class="st5" d="M70.8,71.2h-0.9c-0.1,0-0.2,0-0.2-0.1c-0.1-0.1-0.1-0.1-0.1-0.2v-7.5c0-0.1,0-0.2,0.1-0.2
			c0.1-0.1,0.1-0.1,0.2-0.1h3.4c0.4,0,0.8,0.1,1.2,0.2c0.3,0.1,0.6,0.3,0.9,0.6c0.1,0.1,0.2,0.3,0.3,0.4c0.1,0.1,0.2,0.3,0.2,0.5
			c0.1,0.4,0.2,0.7,0.2,1.1c0,0.6-0.2,1.2-0.5,1.6c-0.2,0.4-0.6,0.6-0.9,0.9c-0.1,0-0.1,0.1-0.2,0.2c0,0.1,0,0.2,0.1,0.2
			c0.3,0.4,0.5,0.7,0.8,1.1c0.3,0.3,0.5,0.7,0.8,1.1c0.1,0.1,0.1,0.2,0.1,0.2c0,0.1-0.1,0.1-0.2,0.1H75c-0.1,0-0.2,0-0.3-0.1
			c-0.1-0.1-0.2-0.1-0.2-0.2c-0.1-0.2-0.3-0.3-0.4-0.5c-0.1-0.2-0.2-0.3-0.4-0.5l-0.7-1c-0.1-0.1-0.1-0.1-0.2-0.2
			c-0.1-0.1-0.2-0.1-0.3-0.1h-0.9c-0.1,0-0.2,0-0.2,0.1s-0.1,0.1-0.1,0.2v1.9c0,0.1,0,0.2-0.1,0.2C71,71.2,70.9,71.2,70.8,71.2z
			 M71.5,67.2h1.8c0.1,0,0.3,0,0.4-0.1c0.2-0.1,0.3-0.1,0.4-0.3c0.1-0.1,0.2-0.3,0.3-0.4c0.1-0.2,0.1-0.4,0.1-0.6c0-0.1,0-0.3,0-0.4
			c0-0.1,0-0.2-0.1-0.2c0-0.1-0.1-0.2-0.1-0.2c-0.1-0.1-0.2-0.3-0.4-0.4c-0.2-0.1-0.4-0.2-0.7-0.2h-1.8c-0.1,0-0.2,0-0.2,0.1
			s-0.1,0.1-0.1,0.2v2.1c0,0.1,0,0.2,0.1,0.2C71.3,67.2,71.4,67.2,71.5,67.2z"/>
		<path class="st3" d="M78.7,70.5c0,0.2-0.1,0.4-0.2,0.6c-0.2,0.2-0.4,0.2-0.6,0.2c-0.2,0-0.4-0.1-0.6-0.2c-0.2-0.2-0.2-0.4-0.2-0.6
			c0-0.2,0.1-0.4,0.2-0.6c0.2-0.2,0.4-0.2,0.6-0.2c0.2,0,0.4,0.1,0.6,0.2C78.6,70.1,78.7,70.3,78.7,70.5z"/>
		<path class="st3" d="M81.3,71.2h-0.9c-0.1,0-0.2,0-0.2-0.1c-0.1-0.1-0.1-0.1-0.1-0.2v-7.5c0-0.1,0-0.2,0.1-0.2
			c0.1-0.1,0.1-0.1,0.2-0.1h0.9c0.1,0,0.2,0,0.2,0.1c0.1,0.1,0.1,0.1,0.1,0.2v7.5c0,0.1,0,0.2-0.1,0.2
			C81.5,71.2,81.4,71.2,81.3,71.2z"/>
		<path class="st3" d="M87.5,71.4c-0.6,0-1.1-0.1-1.7-0.3c-0.5-0.2-1-0.5-1.4-0.9s-0.7-0.8-0.9-1.4c-0.2-0.5-0.3-1.1-0.3-1.7
			c0-0.6,0.1-1.1,0.3-1.7c0.2-0.5,0.5-1,0.9-1.4c0.4-0.4,0.8-0.7,1.4-0.9c0.5-0.2,1.1-0.3,1.7-0.3c0.6,0,1.1,0.1,1.7,0.3
			c0.5,0.2,1,0.5,1.4,0.9c0.4,0.4,0.7,0.8,0.9,1.4c0.2,0.5,0.3,1.1,0.3,1.7c0,0.6-0.1,1.1-0.3,1.7c-0.2,0.5-0.5,1-0.9,1.4
			c-0.4,0.4-0.8,0.7-1.4,0.9C88.6,71.3,88.1,71.4,87.5,71.4z M87.5,64.3c-0.4,0-0.7,0.1-1,0.2c-0.3,0.2-0.6,0.4-0.9,0.6
			c-0.2,0.3-0.4,0.6-0.6,0.9c-0.1,0.3-0.2,0.7-0.2,1.1c0,0.4,0.1,0.7,0.2,1.1c0.1,0.3,0.3,0.6,0.6,0.9c0.2,0.3,0.5,0.5,0.9,0.6
			c0.3,0.2,0.7,0.2,1,0.2c0.4,0,0.7-0.1,1-0.2c0.3-0.2,0.6-0.4,0.9-0.6c0.2-0.3,0.4-0.6,0.6-0.9c0.1-0.3,0.2-0.7,0.2-1.1
			c0-0.4-0.1-0.7-0.2-1.1c-0.1-0.3-0.3-0.6-0.6-0.9c-0.2-0.3-0.5-0.5-0.9-0.6C88.2,64.4,87.9,64.3,87.5,64.3z"/>
	</g>
	<linearGradient id="SVGID_4_" gradientUnits="userSpaceOnUse" x1="26.9703" y1="30.2587" x2="70.0588" y2="30.2587">
		<stop  offset="0" style="stop-color:#1B75BB"/>
		<stop  offset="1" style="stop-color:#00ADEE"/>
	</linearGradient>
	<path class="st6" d="M38.2,13.4v9.7c0,0.7,0.2,1.3,0.7,1.8c0.5,0.5,1.1,0.7,1.8,0.7H64c0.7,0,1.3,0.2,1.8,0.7
		c0.5,0.5,0.7,1.1,0.7,1.8v5.2c0,0.7-0.2,1.3-0.7,1.8c-0.5,0.5-1.1,0.7-1.8,0.7H40.6c-0.7,0-1.3,0.2-1.8,0.7
		c-0.5,0.5-0.7,1.1-0.7,1.8V47c0,0.7,0.2,1.3,0.7,1.8c0.5,0.5,1.1,0.7,1.8,0.7h26.9c0.7,0,1.3,0.2,1.8,0.7c0.5,0.5,0.7,1.1,0.7,1.8
		V57c0,0.7-0.2,1.3-0.7,1.8s-1.1,0.7-1.8,0.7H29.4c-0.7,0-1.3-0.2-1.8-0.7S27,57.7,27,57V3.5c0-0.7,0.2-1.3,0.7-1.8S28.8,1,29.4,1
		h38.1c0.7,0,1.3,0.2,1.8,0.7s0.7,1.1,0.7,1.8v5c0,0.7-0.2,1.3-0.7,1.8c-0.5,0.5-1.1,0.7-1.8,0.7H40.6c-0.7,0-1.3,0.2-1.8,0.7
		C38.4,12.1,38.2,12.7,38.2,13.4z"/>
</g>
</svg>
