<?xml version="1.0" encoding="utf-8"?>
<!-- Generator: Adobe Illustrator 21.1.0, SVG Export Plug-In . SVG Version: 6.00 Build 0)  -->
<svg version="1.1" id="Layer_1" xmlns="http://www.w3.org/2000/svg" xmlns:xlink="http://www.w3.org/1999/xlink" x="0px" y="0px"
	 viewBox="0 0 100.9 71.5" style="enable-background:new 0 0 100.9 71.5;" xml:space="preserve">
<style type="text/css">
	.st0{fill:#0F395A;}
	.st1{fill:#47AF4E;}
	.st2{fill:url(#SVGID_1_);}
	.st3{fill:url(#SVGID_2_);}
	.st4{fill:url(#SVGID_3_);}
	.st5{fill:#018380;}
	.st6{fill:url(#SVGID_4_);}
</style>
<g>
	<path class="st0" d="M8.8,62.7V71c0,0.1,0,0.2-0.1,0.3c-0.1,0.1-0.2,0.1-0.3,0.1H7.5c-0.1,0-0.2,0-0.3-0.1
		c-0.1-0.1-0.1-0.2-0.1-0.3v-3.7c0-0.1,0-0.2-0.1-0.2c0,0-0.1,0-0.2,0.1l-2.3,2.7C4.6,70,4.5,70,4.4,70s-0.2,0-0.2-0.1l-2.3-2.7
		c-0.1-0.1-0.1-0.1-0.2-0.1c0,0-0.1,0.1-0.1,0.2V71c0,0.1,0,0.2-0.1,0.3c-0.1,0.1-0.2,0.1-0.3,0.1H0.4c-0.1,0-0.2,0-0.3-0.1
		C0,71.1,0,71.1,0,71v-8.2c0-0.1,0-0.2,0.1-0.2c0.1,0,0.2,0,0.2,0.1l3.8,4.7c0.1,0.1,0.1,0.1,0.2,0.1s0.2,0,0.2-0.1l3.8-4.7
		c0.1-0.1,0.1-0.1,0.2-0.1C8.8,62.6,8.8,62.6,8.8,62.7z"/>
	<path class="st0" d="M14.9,71.5c-0.6,0-1.2-0.1-1.8-0.4c-0.6-0.2-1-0.6-1.4-1s-0.7-0.9-1-1.4c-0.2-0.6-0.4-1.1-0.4-1.8
		c0-0.6,0.1-1.2,0.4-1.8c0.2-0.6,0.6-1,1-1.5s0.9-0.7,1.4-1c0.6-0.2,1.1-0.4,1.8-0.4c0.6,0,1.2,0.1,1.8,0.4c0.6,0.2,1,0.6,1.4,1
		c0.4,0.4,0.7,0.9,1,1.5c0.2,0.6,0.4,1.1,0.4,1.8c0,0.6-0.1,1.2-0.4,1.8c-0.2,0.6-0.6,1-1,1.4c-0.4,0.4-0.9,0.7-1.4,1
		C16.1,71.4,15.5,71.5,14.9,71.5z M14.9,63.9c-0.4,0-0.8,0.1-1.1,0.2s-0.7,0.4-0.9,0.7c-0.3,0.3-0.5,0.6-0.6,1
		c-0.2,0.4-0.2,0.7-0.2,1.1c0,0.4,0.1,0.8,0.2,1.1c0.2,0.4,0.4,0.7,0.6,1c0.3,0.3,0.6,0.5,0.9,0.7c0.3,0.2,0.7,0.2,1.1,0.2
		c0.4,0,0.8-0.1,1.1-0.2c0.3-0.2,0.7-0.4,0.9-0.7c0.3-0.3,0.5-0.6,0.6-1c0.2-0.4,0.2-0.7,0.2-1.1c0-0.4-0.1-0.8-0.2-1.1
		s-0.4-0.7-0.6-1c-0.3-0.3-0.6-0.5-0.9-0.7S15.3,63.9,14.9,63.9z"/>
	<path class="st0" d="M26.4,62.9v5.1c0,0.5-0.1,1-0.2,1.4c-0.2,0.4-0.4,0.8-0.7,1.1c-0.3,0.3-0.6,0.5-1,0.7
		c-0.4,0.2-0.8,0.3-1.3,0.3c-0.7,0-1.3-0.2-1.8-0.5c-0.4-0.2-0.7-0.6-1-1c0-0.1-0.1-0.2,0-0.3c0-0.1,0.1-0.2,0.2-0.2l0.9-0.4
		c0.1,0,0.2-0.1,0.3,0s0.1,0,0.2,0.1c0,0,0,0,0.1,0.1s0,0.1,0.1,0.1c0.1,0.1,0.2,0.2,0.3,0.3c0.1,0.1,0.2,0.2,0.4,0.2
		c0.2,0.1,0.3,0.1,0.5,0.1c0.3,0,0.6-0.1,0.8-0.2c0.2-0.1,0.4-0.3,0.5-0.5c0.1-0.1,0.1-0.2,0.1-0.3s0.1-0.2,0.1-0.3
		c0-0.1,0-0.2,0-0.3s0-0.2,0-0.3v-5.1c0-0.1,0-0.2,0.1-0.3s0.2-0.1,0.3-0.1H26c0.1,0,0.2,0,0.3,0.1C26.3,62.7,26.4,62.8,26.4,62.9z"
		/>
	<path class="st0" d="M29.9,64.4v1.5c0,0.1,0,0.2,0.1,0.3c0.1,0.1,0.2,0.1,0.3,0.1h3.5c0.1,0,0.2,0,0.3,0.1c0.1,0.1,0.1,0.2,0.1,0.3
		v0.8c0,0.1,0,0.2-0.1,0.3c-0.1,0.1-0.2,0.1-0.3,0.1h-3.5c-0.1,0-0.2,0-0.3,0.1c-0.1,0.1-0.1,0.2-0.1,0.3v1.3c0,0.1,0,0.2,0.1,0.3
		c0.1,0.1,0.2,0.1,0.3,0.1h4c0.1,0,0.2,0,0.3,0.1c0.1,0.1,0.1,0.2,0.1,0.3V71c0,0.1,0,0.2-0.1,0.3c-0.1,0.1-0.2,0.1-0.3,0.1h-5.7
		c-0.1,0-0.2,0-0.3-0.1c-0.1-0.1-0.1-0.2-0.1-0.3v-8c0-0.1,0-0.2,0.1-0.3c0.1-0.1,0.2-0.1,0.3-0.1h5.7c0.1,0,0.2,0,0.3,0.1
		c0.1,0.1,0.1,0.2,0.1,0.3v0.7c0,0.1,0,0.2-0.1,0.3C34.5,64,34.4,64,34.3,64h-4c-0.1,0-0.2,0-0.3,0.1C30,64.2,29.9,64.3,29.9,64.4z"
		/>
	<path class="st0" d="M41.6,62.8c0.4,0.2,0.7,0.4,1,0.7c0.1,0.1,0.3,0.3,0.4,0.5s0.2,0.3,0.3,0.5c0.2,0.4,0.2,0.8,0.2,1.2
		c0,0.4-0.1,0.8-0.2,1.2s-0.4,0.7-0.6,1c-0.3,0.3-0.6,0.5-1.1,0.6c-0.4,0.2-0.9,0.2-1.5,0.2h-1.6c-0.1,0-0.2,0-0.3,0.1
		c-0.1,0.1-0.1,0.2-0.1,0.3V71c0,0.1,0,0.2-0.1,0.3c-0.1,0.1-0.2,0.1-0.3,0.1h-0.9c-0.1,0-0.2,0-0.3-0.1c-0.1-0.1-0.1-0.2-0.1-0.3
		v-8c0-0.1,0-0.2,0.1-0.3c0.1-0.1,0.2-0.1,0.3-0.1h3.5C40.8,62.5,41.2,62.6,41.6,62.8z M41,67.1c0.2-0.1,0.3-0.2,0.5-0.3
		c0.1-0.1,0.1-0.1,0.1-0.2s0.1-0.2,0.1-0.3c0.1-0.2,0.1-0.4,0.1-0.6c0-0.2,0-0.4-0.1-0.6c-0.1-0.2-0.2-0.4-0.3-0.5
		c-0.1-0.2-0.3-0.3-0.5-0.4c-0.2-0.1-0.4-0.1-0.7-0.1h-1.7c-0.1,0-0.2,0-0.3,0.1c-0.1,0.1-0.1,0.2-0.1,0.3v2.4c0,0.1,0,0.2,0.1,0.3
		c0.1,0.1,0.2,0.1,0.3,0.1h1.9C40.6,67.2,40.8,67.2,41,67.1z"/>
	<path class="st0" d="M45.9,71.3h-0.9c-0.1,0-0.2,0-0.3-0.1c-0.1-0.1-0.1-0.2-0.1-0.3v-8c0-0.1,0-0.2,0.1-0.3
		c0.1-0.1,0.2-0.1,0.3-0.1h3.6c0.4,0,0.9,0.1,1.2,0.2c0.4,0.2,0.7,0.4,0.9,0.6c0.1,0.1,0.3,0.3,0.4,0.4s0.2,0.3,0.3,0.5
		c0.1,0.4,0.2,0.8,0.2,1.2c0,0.7-0.2,1.3-0.5,1.7c-0.3,0.4-0.6,0.7-1,0.9c-0.1,0-0.1,0.1-0.2,0.2c0,0.1,0,0.2,0.1,0.2
		c0.3,0.4,0.6,0.8,0.8,1.1c0.3,0.4,0.5,0.7,0.8,1.1c0.1,0.1,0.1,0.2,0.1,0.3c0,0.1-0.1,0.1-0.2,0.1h-1.2c-0.1,0-0.2,0-0.3-0.1
		c-0.1-0.1-0.2-0.1-0.3-0.2c-0.1-0.2-0.3-0.4-0.4-0.5c-0.1-0.2-0.3-0.4-0.4-0.5l-0.8-1.1c-0.1-0.1-0.2-0.2-0.3-0.2
		c-0.1-0.1-0.2-0.1-0.3-0.1h-0.9c-0.1,0-0.2,0-0.3,0.1c-0.1,0.1-0.1,0.2-0.1,0.3V71c0,0.1,0,0.2-0.1,0.3
		C46.1,71.3,46,71.3,45.9,71.3z M46.6,67h1.9c0.1,0,0.3,0,0.5-0.1c0.2-0.1,0.3-0.2,0.4-0.3c0.1-0.1,0.2-0.3,0.3-0.5
		c0.1-0.2,0.1-0.4,0.1-0.6c0-0.1,0-0.3,0-0.5c0-0.1,0-0.2-0.1-0.3c0-0.1-0.1-0.2-0.1-0.2c-0.1-0.2-0.2-0.3-0.4-0.4
		c-0.2-0.1-0.4-0.2-0.7-0.2h-1.9c-0.1,0-0.2,0-0.3,0.1c-0.1,0.1-0.1,0.2-0.1,0.3v2.3c0,0.1,0,0.2,0.1,0.3C46.4,67,46.5,67,46.6,67z"
		/>
	<path class="st0" d="M52.4,71l4.2-8.3c0-0.1,0.1-0.1,0.2-0.1c0.1,0,0.2,0,0.2,0.1l4.2,8.3c0,0.1,0.1,0.2,0,0.2
		c0,0.1-0.1,0.1-0.2,0.1h-1.1c-0.1,0-0.2,0-0.3-0.1c-0.1-0.1-0.2-0.1-0.2-0.2L59,70.3c0-0.1-0.1-0.2-0.2-0.2
		c-0.1-0.1-0.2-0.1-0.3-0.1h-3.4c-0.1,0-0.2,0-0.3,0.1c-0.1,0.1-0.2,0.1-0.2,0.2L54.2,71c0,0.1-0.1,0.2-0.2,0.2
		c-0.1,0.1-0.2,0.1-0.3,0.1h-1.1c-0.1,0-0.2,0-0.2-0.1C52.3,71.2,52.3,71.1,52.4,71z M55.9,68.5h1.8c0.1,0,0.2,0,0.2-0.1
		c0-0.1,0-0.1,0-0.2l-0.9-2c0-0.1-0.1-0.1-0.2-0.1c-0.1,0-0.1,0-0.2,0.1l-0.9,2c0,0.1,0,0.2,0,0.2C55.7,68.5,55.8,68.5,55.9,68.5z"
		/>
	<path class="st0" d="M71.8,62.9l-3,8.3c0,0.1-0.1,0.1-0.2,0.1c-0.1,0-0.2,0-0.2-0.1l-2.1-4.7c0-0.1-0.1-0.1-0.2-0.1
		c-0.1,0-0.1,0-0.2,0.1l-2.1,4.6c0,0.1-0.1,0.1-0.2,0.1c-0.1,0-0.2,0-0.2-0.1l-3-8.3c0-0.1,0-0.2,0-0.2c0-0.1,0.1-0.1,0.2-0.1h1
		c0.1,0,0.2,0,0.3,0.1c0.1,0.1,0.2,0.1,0.2,0.2l1.5,4.1c0,0.1,0.1,0.1,0.1,0.1c0.1,0,0.1,0,0.1-0.1l1.9-4.3c0-0.1,0.1-0.1,0.2-0.1
		c0.1,0,0.2,0,0.2,0.1l1.9,4.3c0,0.1,0.1,0.1,0.1,0.1s0.1,0,0.1-0.1l1.5-4.1c0-0.1,0.1-0.2,0.2-0.2c0.1-0.1,0.2-0.1,0.3-0.1h1
		c0.1,0,0.2,0,0.2,0.1C71.9,62.7,71.9,62.8,71.8,62.9z"/>
	<path class="st0" d="M76.6,71.5c-0.6,0-1.2-0.1-1.8-0.4s-1-0.6-1.4-1s-0.7-0.9-1-1.4s-0.4-1.1-0.4-1.8c0-0.6,0.1-1.2,0.4-1.8
		s0.6-1,1-1.5s0.9-0.7,1.4-1c0.6-0.2,1.1-0.4,1.8-0.4c0.6,0,1.2,0.1,1.8,0.4c0.6,0.2,1,0.6,1.4,1c0.4,0.4,0.7,0.9,1,1.5
		s0.4,1.1,0.4,1.8c0,0.6-0.1,1.2-0.4,1.8s-0.6,1-1,1.4c-0.4,0.4-0.9,0.7-1.4,1S77.3,71.5,76.6,71.5z M76.6,63.9
		c-0.4,0-0.8,0.1-1.1,0.2c-0.3,0.2-0.7,0.4-0.9,0.7c-0.3,0.3-0.5,0.6-0.6,1c-0.2,0.4-0.2,0.7-0.2,1.1c0,0.4,0.1,0.8,0.2,1.1
		c0.2,0.4,0.4,0.7,0.6,1c0.3,0.3,0.6,0.5,0.9,0.7c0.3,0.2,0.7,0.2,1.1,0.2c0.4,0,0.8-0.1,1.1-0.2c0.3-0.2,0.7-0.4,0.9-0.7
		c0.3-0.3,0.5-0.6,0.6-1c0.2-0.4,0.2-0.7,0.2-1.1c0-0.4-0.1-0.8-0.2-1.1c-0.2-0.4-0.4-0.7-0.6-1c-0.3-0.3-0.6-0.5-0.9-0.7
		C77.4,64,77,63.9,76.6,63.9z"/>
	<path class="st1" d="M83.8,70.5c0,0.2-0.1,0.5-0.3,0.6c-0.2,0.2-0.4,0.3-0.6,0.3c-0.2,0-0.4-0.1-0.6-0.3C82.1,71,82,70.8,82,70.5
		c0-0.2,0.1-0.4,0.3-0.6c0.2-0.2,0.4-0.3,0.6-0.3c0.2,0,0.5,0.1,0.6,0.3C83.7,70.1,83.8,70.3,83.8,70.5z"/>
	<path class="st1" d="M86.5,71.3h-0.9c-0.1,0-0.2,0-0.3-0.1c-0.1-0.1-0.1-0.2-0.1-0.3v-8c0-0.1,0-0.2,0.1-0.3
		c0.1-0.1,0.2-0.1,0.3-0.1h0.9c0.1,0,0.2,0,0.3,0.1s0.1,0.2,0.1,0.3v8c0,0.1,0,0.2-0.1,0.3S86.6,71.3,86.5,71.3z"/>
	<path class="st1" d="M93.2,71.5c-0.6,0-1.2-0.1-1.8-0.4c-0.6-0.2-1-0.6-1.4-1s-0.7-0.9-1-1.4c-0.2-0.6-0.4-1.1-0.4-1.8
		c0-0.6,0.1-1.2,0.4-1.8c0.2-0.6,0.6-1,1-1.5s0.9-0.7,1.4-1c0.6-0.2,1.1-0.4,1.8-0.4c0.6,0,1.2,0.1,1.8,0.4c0.6,0.2,1,0.6,1.4,1
		c0.4,0.4,0.7,0.9,1,1.5c0.2,0.6,0.4,1.1,0.4,1.8c0,0.6-0.1,1.2-0.4,1.8c-0.2,0.6-0.6,1-1,1.4c-0.4,0.4-0.9,0.7-1.4,1
		C94.4,71.4,93.8,71.5,93.2,71.5z M93.2,63.9c-0.4,0-0.8,0.1-1.1,0.2c-0.3,0.2-0.7,0.4-0.9,0.7c-0.3,0.3-0.5,0.6-0.6,1
		s-0.2,0.7-0.2,1.1c0,0.4,0.1,0.8,0.2,1.1c0.2,0.4,0.4,0.7,0.6,1c0.3,0.3,0.6,0.5,0.9,0.7c0.3,0.2,0.7,0.2,1.1,0.2s0.8-0.1,1.1-0.2
		c0.3-0.2,0.7-0.4,0.9-0.7c0.3-0.3,0.5-0.6,0.6-1c0.2-0.4,0.2-0.7,0.2-1.1c0-0.4-0.1-0.8-0.2-1.1c-0.2-0.4-0.4-0.7-0.6-1
		c-0.3-0.3-0.6-0.5-0.9-0.7C94,64,93.6,63.9,93.2,63.9z"/>
</g>
<g>
	<linearGradient id="SVGID_1_" gradientUnits="userSpaceOnUse" x1="0.143" y1="29.2211" x2="58.9045" y2="29.2211">
		<stop  offset="0.2542" style="stop-color:#462F83"/>
		<stop  offset="0.3505" style="stop-color:#513187"/>
		<stop  offset="0.6655" style="stop-color:#6E3A92"/>
		<stop  offset="0.8292" style="stop-color:#793E98"/>
	</linearGradient>
	<path class="st2" d="M58.9,1.3v54.5c0,0.7-0.2,1.3-0.7,1.8c-0.5,0.5-1,0.7-1.7,0.7h-6.3c-0.7,0-1.3-0.2-1.8-0.7
		c-0.5-0.5-0.7-1.1-0.7-1.8V31.3c0-0.7-0.1-1.1-0.4-1.2c-0.3-0.1-0.7,0.1-1.1,0.7L31.1,48.8c-0.4,0.5-0.9,0.8-1.6,0.8
		c-0.6,0-1.1-0.3-1.6-0.8L12.9,30.8c-0.4-0.5-0.8-0.7-1.1-0.6c-0.3,0.1-0.5,0.5-0.5,1.2v24.6c0,0.7-0.2,1.3-0.7,1.8
		c-0.5,0.5-1.1,0.7-1.8,0.7H2.6c-0.7,0-1.3-0.2-1.8-0.7c-0.5-0.5-0.7-1.1-0.7-1.8V1.3c0-0.7,0.3-1.1,1-1.2C1.7,0,2.3,0.2,2.7,0.8
		l25.2,31.1c0.4,0.5,1,0.7,1.6,0.7s1.2-0.2,1.6-0.7L56.4,0.8c0.4-0.5,1-0.7,1.6-0.6C58.6,0.2,58.9,0.6,58.9,1.3z"/>
</g>
<g>
	<linearGradient id="SVGID_2_" gradientUnits="userSpaceOnUse" x1="100.8715" y1="20.7083" x2="59.5744" y2="20.7083">
		<stop  offset="0" style="stop-color:#028380"/>
		<stop  offset="1" style="stop-color:#48AF4C"/>
	</linearGradient>
	<path class="st3" d="M99.3,12.6c-0.6-1.2-1.2-2.4-1.9-3.5C96.6,8,95.8,7,94.8,6c-1.9-1.9-4-3.3-6.5-4.5C85.7,0.5,83,0,80.2,0H59.6
		c0.2,0.3,0.3,0.8,0.3,1.2v40.2c0.4-0.3,0.9-0.5,1.5-0.5h16.9c3.7,0,6.9-0.5,9.9-1.6c2.9-1.1,5.2-2.5,7-4.3c1.9-1.8,3.3-3.9,4.2-6.4
		c1-2.4,1.4-5.1,1.4-8C100.9,17.9,100.3,15.2,99.3,12.6z"/>
	<linearGradient id="SVGID_3_" gradientUnits="userSpaceOnUse" x1="55.6276" y1="4.8049" x2="47.8078" y2="4.8049">
		<stop  offset="0" style="stop-color:#028380"/>
		<stop  offset="1" style="stop-color:#48AF4C"/>
	</linearGradient>
	<path class="st4" d="M55.6,0.1C55.6,0,55.6,0,55.6,0.1L50.3,0c-0.7,0-1.3,0.2-1.8,0.7c-0.5,0.5-0.7,1.1-0.7,1.7v7.1L55.6,0.1z"/>
</g>
<path class="st5" d="M57.9,0.1c-0.6-0.1-1.2,0.1-1.6,0.6l-8.5,10.5v44.5c0,0.7,0.2,1.3,0.7,1.8c0.5,0.5,1.1,0.7,1.8,0.7h6.3
	c0.5,0,0.9-0.1,1.3-0.4c0.1-0.1,0.2-0.2,0.3-0.3c0.5-0.5,0.7-1.1,0.7-1.8V1.3C58.9,0.6,58.5,0.2,57.9,0.1z"/>
<linearGradient id="SVGID_4_" gradientUnits="userSpaceOnUse" x1="67.5273" y1="20.2143" x2="91.7614" y2="20.2143">
	<stop  offset="0" style="stop-color:#028380"/>
	<stop  offset="1" style="stop-color:#48AF4C"/>
</linearGradient>
<path class="st6" d="M86.5,29.8c1.2-0.5,2.2-1.3,3-2.2c0.4-0.5,0.7-1,1-1.5c0.3-0.6,0.5-1.1,0.7-1.7c0.4-1.1,0.6-2.4,0.6-3.8
	c0-1.3-0.2-2.6-0.7-4c-0.5-1.3-1.2-2.5-2.1-3.4c-0.8-1-2-1.8-3.3-2.5c-1.3-0.6-2.8-0.9-4.6-0.9H70c-0.7,0-1.3,0.2-1.7,0.7
	c-0.5,0.5-0.7,1.1-0.7,1.7v16c0,0.7,0.2,1.3,0.7,1.7c0.5,0.5,1.1,0.7,1.7,0.7h12.3C83.8,30.7,85.3,30.4,86.5,29.8z"/>
</svg>
